<svg width="65" height="24" viewBox="0 0 65 24" fill="none" xmlns="http://www.w3.org/2000/svg">
<circle cx="12" cy="12" r="7.5" stroke="#3DCF8E" stroke-width="9"/>
<path d="M31.9732 4.45795C32.0612 4.45795 32.1352 4.46195 32.1952 4.46995C32.2552 4.47795 32.3092 4.49395 32.3572 4.51795C32.4052 4.53795 32.4512 4.56795 32.4952 4.60795C32.5392 4.64795 32.5892 4.70195 32.6452 4.76995L36.7972 10.02C36.7812 9.85195 36.7692 9.68995 36.7612 9.53395C36.7532 9.37395 36.7492 9.22395 36.7492 9.08395V4.45795H38.5372V13.2H37.4812C37.3252 13.2 37.1932 13.176 37.0852 13.128C36.9772 13.08 36.8732 12.992 36.7732 12.864L32.6512 7.65595C32.6632 7.80795 32.6732 7.95795 32.6812 8.10595C32.6892 8.24995 32.6932 8.38595 32.6932 8.51395V13.2H30.9052V4.45795H31.9732ZM45.6035 4.45795V6.01795H42.0155V8.05795H44.7635V9.55795H42.0155V11.64H45.6035V13.2H39.9755V4.45795H45.6035ZM46.1007 4.45795H47.8047C47.9807 4.45795 48.1267 4.49795 48.2427 4.57795C48.3627 4.65795 48.4407 4.76395 48.4767 4.89595L49.6767 9.45595C49.7167 9.60395 49.7567 9.76195 49.7967 9.92995C49.8367 10.098 49.8667 10.274 49.8867 10.458C49.9267 10.27 49.9707 10.094 50.0187 9.92995C50.0667 9.76195 50.1127 9.60395 50.1567 9.45595L51.5727 4.89595C51.6087 4.78395 51.6847 4.68395 51.8007 4.59595C51.9207 4.50395 52.0647 4.45795 52.2327 4.45795H52.8327C53.0087 4.45795 53.1527 4.49795 53.2647 4.57795C53.3807 4.65395 53.4607 4.75995 53.5047 4.89595L54.9087 9.45595C54.9527 9.59595 54.9987 9.74595 55.0467 9.90595C55.0947 10.062 55.1367 10.23 55.1727 10.41C55.2047 10.234 55.2367 10.066 55.2687 9.90595C55.3047 9.74595 55.3407 9.59595 55.3767 9.45595L56.5767 4.89595C56.6087 4.77995 56.6847 4.67795 56.8047 4.58995C56.9247 4.50195 57.0687 4.45795 57.2367 4.45795H58.8327L56.1327 13.2H54.2967L52.6527 7.78195C52.6247 7.69795 52.5947 7.60595 52.5627 7.50595C52.5347 7.40595 52.5067 7.29995 52.4787 7.18795C52.4507 7.29995 52.4207 7.40595 52.3887 7.50595C52.3607 7.60595 52.3327 7.69795 52.3047 7.78195L50.6367 13.2H48.8007L46.1007 4.45795ZM64.4881 6.23395C64.4281 6.32995 64.3641 6.40195 64.2961 6.44995C64.2321 6.49795 64.1481 6.52195 64.0441 6.52195C63.9521 6.52195 63.8521 6.49395 63.7441 6.43795C63.6401 6.37795 63.5201 6.31195 63.3841 6.23995C63.2521 6.16795 63.1001 6.10395 62.9281 6.04795C62.7561 5.98795 62.5601 5.95795 62.3401 5.95795C61.9601 5.95795 61.6761 6.03995 61.4881 6.20395C61.3041 6.36395 61.2121 6.58195 61.2121 6.85795C61.2121 7.03395 61.2681 7.17995 61.3801 7.29595C61.4921 7.41195 61.6381 7.51195 61.8181 7.59595C62.0021 7.67995 62.2101 7.75795 62.4421 7.82995C62.6781 7.89795 62.9181 7.97595 63.1621 8.06395C63.4061 8.14795 63.6441 8.24795 63.8761 8.36395C64.1121 8.47995 64.3201 8.62795 64.5001 8.80795C64.6841 8.98795 64.8321 9.20795 64.9441 9.46795C65.0561 9.72395 65.1121 10.034 65.1121 10.398C65.1121 10.802 65.0421 11.18 64.9021 11.532C64.7621 11.884 64.5581 12.192 64.2901 12.456C64.0261 12.716 63.6981 12.922 63.3061 13.074C62.9181 13.222 62.4761 13.296 61.9801 13.296C61.7081 13.296 61.4301 13.268 61.1461 13.212C60.8661 13.156 60.5941 13.078 60.3301 12.978C60.0661 12.874 59.8181 12.752 59.5861 12.612C59.3541 12.472 59.1521 12.316 58.9801 12.144L59.5801 11.196C59.6241 11.124 59.6861 11.066 59.7661 11.022C59.8461 10.978 59.9321 10.956 60.0241 10.956C60.1441 10.956 60.2641 10.994 60.3841 11.07C60.5081 11.146 60.6461 11.23 60.7981 11.322C60.9541 11.414 61.1321 11.498 61.3321 11.574C61.5321 11.65 61.7681 11.688 62.0401 11.688C62.4081 11.688 62.6941 11.608 62.8981 11.448C63.1021 11.284 63.2041 11.026 63.2041 10.674C63.2041 10.47 63.1481 10.304 63.0361 10.176C62.9241 10.048 62.7761 9.94195 62.5921 9.85795C62.4121 9.77395 62.2061 9.69995 61.9741 9.63595C61.7421 9.57195 61.5041 9.50195 61.2601 9.42595C61.0161 9.34595 60.7781 9.24995 60.5461 9.13795C60.3141 9.02195 60.1061 8.87195 59.9221 8.68795C59.7421 8.49995 59.5961 8.26795 59.4841 7.99195C59.3721 7.71195 59.3161 7.36795 59.3161 6.95995C59.3161 6.63195 59.3821 6.31195 59.5141 5.99995C59.6461 5.68795 59.8401 5.40995 60.0961 5.16595C60.3521 4.92195 60.6661 4.72795 61.0381 4.58395C61.4101 4.43595 61.8361 4.36195 62.3161 4.36195C62.5841 4.36195 62.8441 4.38395 63.0961 4.42795C63.3521 4.46795 63.5941 4.52995 63.8221 4.61395C64.0501 4.69395 64.2621 4.79195 64.4581 4.90795C64.6581 5.01995 64.8361 5.14795 64.9921 5.29195L64.4881 6.23395Z" fill="white"/>
<path d="M41.3989 18C41.8973 18 42.2963 18.1568 42.5959 18.4704C42.8955 18.784 43.0453 19.2068 43.0453 19.7388V22.6032H41.5585V20.1672C41.5585 19.9096 41.4885 19.7066 41.3485 19.5582C41.2085 19.4098 41.0209 19.3356 40.7857 19.3356C40.5393 19.3412 40.3363 19.4224 40.1767 19.5792C40.0171 19.736 39.9233 19.9432 39.8953 20.2008V22.6032H38.4001V18.0588H39.8953V18.798C40.0577 18.5348 40.2663 18.336 40.5211 18.2016C40.7759 18.0672 41.0685 18 41.3989 18ZM46.2961 18.0084C46.7889 18.0084 47.2229 18.105 47.5981 18.2982C47.9733 18.4914 48.2645 18.763 48.4717 19.113C48.6789 19.463 48.7825 19.8676 48.7825 20.3268C48.7825 20.7916 48.6789 21.199 48.4717 21.549C48.2645 21.899 47.9733 22.1706 47.5981 22.3638C47.2229 22.557 46.7889 22.6536 46.2961 22.6536C45.8033 22.6536 45.3693 22.557 44.9941 22.3638C44.6189 22.1706 44.3291 21.899 44.1247 21.549C43.9203 21.199 43.8181 20.7916 43.8181 20.3268C43.8181 19.8676 43.9203 19.463 44.1247 19.113C44.3291 18.763 44.6189 18.4914 44.9941 18.2982C45.3693 18.105 45.8033 18.0084 46.2961 18.0084ZM46.2961 19.218C46.0049 19.218 45.7697 19.3216 45.5905 19.5288C45.4113 19.736 45.3217 20.0076 45.3217 20.3436C45.3217 20.6852 45.4113 20.9596 45.5905 21.1668C45.7697 21.374 46.0049 21.4776 46.2961 21.4776C46.5929 21.4776 46.8309 21.374 47.0101 21.1668C47.1893 20.9596 47.2789 20.6852 47.2789 20.3436C47.2789 20.0076 47.1879 19.736 47.0059 19.5288C46.8239 19.3216 46.5873 19.218 46.2961 19.218ZM48.9169 18.0588H50.4373L51.3445 21.1332L52.2349 18.0588H53.6629L54.5617 21.1332L55.4689 18.0588H56.9305L55.2673 22.6032H53.7889L52.9237 19.7976L52.0501 22.6032H50.5717L48.9169 18.0588Z" fill="#3DCF8E"/>
</svg>
